PathFileType	4	(X/Y/Z)	s07c0001.trc
DataRate	CameraRate	NumFrames	NumMarkers	Units	OrigDataRate	OrigDataStartFrame	OrigNumFrames
200	200	4	49	mm	200	1750	2000
Frame#	Time	racr			lacr			c7			jug			rlel			rdr			llel			ldr			s2			lic			ric			lasi			rasi			rpsi			lpsi			rgt			lgt			rth1			rth2			rth3			rth4			rlfc			rmfc			rsh1			rsh2			rsh3			rsh4			rlmal			rmmal			rcal			rtoe			rmt5			rmt1			lth1			lth2			lth4			lth3			llfc			lmfc			lsh1			lsh2			lsh3			lsh4			llmal			lmmal			lcal			ltoe			lmt1			lmt5			
		X1	Y1	Z1	X2	Y2	Z2	X3	Y3	Z3	X4	Y4	Z4	X5	Y5	Z5	X6	Y6	Z6	X7	Y7	Z7	X8	Y8	Z8	X9	Y9	Z9	X10	Y10	Z10	X11	Y11	Z11	X12	Y12	Z12	X13	Y13	Z13	X14	Y14	Z14	X15	Y15	Z15	X16	Y16	Z16	X17	Y17	Z17	X18	Y18	Z18	X19	Y19	Z19	X20	Y20	Z20	X21	Y21	Z21	X22	Y22	Z22	X23	Y23	Z23	X24	Y24	Z24	X25	Y25	Z25	X26	Y26	Z26	X27	Y27	Z27	X28	Y28	Z28	X29	Y29	Z29	X30	Y30	Z30	X31	Y31	Z31	X32	Y32	Z32	X33	Y33	Z33	X34	Y34	Z34	X35	Y35	Z35	X36	Y36	Z36	X37	Y37	Z37	X38	Y38	Z38	X39	Y39	Z39	X40	Y40	Z40	X41	Y41	Z41	X42	Y42	Z42	X43	Y43	Z43	X44	Y44	Z44	X45	Y45	Z45	X46	Y46	Z46	X47	Y47	Z47	X48	Y48	Z48	X49	Y49	Z49	
1750	8.7500	193.342865	1568.559814	560.573059	218.061676	1566.770020	189.944656	158.748825	1606.040283	372.660583	280.757416	1516.271240	381.229492	262.454315	1224.649170	693.413086	413.953674	987.748047	805.837830	295.136841	1212.798340	94.371048	449.987640	974.856323	-8.331580	128.894501	1061.338745	364.284210	274.733215	1143.165894	228.341354	261.262482	1131.468384	532.437988	339.415741	1074.836548	261.359070	309.439484	1072.311401	524.878235	0.000000	0.000000	-0.000000	158.103729	1103.235352	308.890686	224.459152	975.816772	560.652893	257.015808	973.320190	210.719574	232.152710	847.039490	563.206299	254.314957	761.826233	555.658081	233.232529	679.163208	546.690430	290.631439	763.474731	548.187622	230.160019	537.670044	512.479309	239.136581	526.710510	416.767792	187.987228	400.610291	529.242065	203.972427	314.205536	509.794647	173.885101	232.996750	503.663940	226.928680	317.803436	477.233459	159.411041	92.183037	488.499451	200.529755	105.541428	409.932312	114.011444	41.462528	447.042816	395.583252	85.714813	505.314178	311.049255	36.083111	557.025146	328.328918	43.754890	449.488647	265.343384	855.818359	196.727676	287.060150	770.718933	204.177643	321.553619	771.058167	218.514343	262.459045	685.607361	212.086639	254.552277	531.046387	240.353714	248.234772	515.322937	328.219330	217.950226	396.363495	215.161240	233.159119	313.894287	236.570206	204.865555	227.273590	232.462158	243.119583	317.178650	276.804169	190.956970	91.468521	243.694382	225.374176	111.832520	324.883575	141.649567	37.716011	280.107483	423.382996	92.537071	249.197433	359.118591	47.290825	297.298676	345.703735	52.846901	192.193253	
1751	8.7550	193.386017	1568.560913	560.594910	218.103699	1566.787964	189.967606	158.769974	1606.042358	372.690338	280.771698	1516.276855	381.238098	262.459015	1224.658691	693.454468	413.979858	987.755615	805.865723	295.137909	1212.795776	94.388763	449.995605	974.859192	-8.311704	128.921341	1061.339966	364.304413	274.701172	1143.182739	228.352783	261.278900	1131.472900	532.451355	339.416412	1074.837280	261.344574	309.455322	1072.307495	524.885254	0.000000	0.000000	-0.000000	158.131912	1103.231201	308.911041	224.474426	975.816711	560.668030	257.022186	973.309509	210.736816	232.181351	847.039612	563.214294	254.350922	761.819458	555.673767	233.255020	679.169739	546.710510	290.667877	763.496399	548.197571	230.179352	537.640869	512.479980	239.144516	526.708557	416.774567	188.012833	400.605103	529.253174	203.988937	314.206940	509.794800	173.869202	232.993011	503.671600	226.915283	317.794250	477.224091	159.425003	92.194382	488.507599	200.512344	105.535751	409.933716	114.011444	41.462540	447.042816	395.594635	85.713455	505.327087	311.071167	36.082882	557.010864	328.321045	43.754505	449.472260	265.360107	855.810303	196.753998	287.060822	770.725342	204.174881	321.551880	771.074524	218.562958	262.467987	685.591003	212.078735	254.548386	531.067322	240.344360	248.234772	515.322937	328.219330	217.960526	396.353180	215.165222	233.170547	313.898407	236.565735	204.858398	227.259094	232.461212	243.122559	317.156525	276.783936	190.953857	91.474152	243.720276	225.387482	111.844193	324.885315	141.660690	37.699532	280.111816	423.370361	92.538513	249.193176	359.102264	47.261600	297.272430	345.712494	52.856567	192.192764	
1752	8.7600	193.425339	1568.572632	560.603271	218.124588	1566.801025	189.981339	158.795303	1606.046875	372.689270	280.813690	1516.287109	381.261292	262.493927	1224.668579	693.452148	414.004211	987.762573	805.905457	295.141479	1212.809326	94.398087	449.971252	974.868835	-8.326860	128.930206	1061.338257	364.321350	274.735565	1143.168701	228.377197	261.304565	1131.486328	532.474915	339.412659	1074.843750	261.352234	309.474731	1072.306030	524.893860	0.000000	0.000000	-0.000000	158.140167	1103.243286	308.919800	224.501694	975.810669	560.676514	257.022888	973.317261	210.736481	232.185104	847.046204	563.229004	254.355103	761.794861	555.678894	233.261520	679.179199	546.723999	290.685486	763.486572	548.186584	230.183929	537.654358	512.498047	239.141068	526.713440	416.761871	188.010666	400.616852	529.258606	203.995850	314.198120	509.806274	173.885376	233.009293	503.675140	226.934830	317.793060	477.232452	159.436127	92.188843	488.506897	200.535110	105.527565	409.941895	114.011444	41.462555	447.042816	395.592804	85.720222	505.303772	311.049255	36.083111	557.025146	328.332031	43.762421	449.465759	265.362305	855.810913	196.754028	287.070465	770.726990	204.170151	321.559662	771.091675	218.554047	262.478394	685.607910	212.089447	254.556580	531.070007	240.351547	248.236053	515.328552	328.236389	217.969498	396.352539	215.170303	233.165878	313.911926	236.572311	204.883789	227.270752	232.468170	243.128922	317.149170	276.764069	190.969177	91.478981	243.709488	225.374420	111.846985	324.882050	141.650909	37.712017	280.107117	423.380432	92.536568	249.184906	359.139801	47.276291	297.318359	345.735626	52.852833	192.192444	
1753	8.7650	193.462738	1568.580566	560.627869	218.143463	1566.796631	190.004028	158.818146	1606.047241	372.690308	280.839478	1516.304443	381.268738	262.505310	1224.669800	693.491821	414.018494	987.763611	805.926453	295.140594	1212.808594	94.396767	449.965393	974.868713	-8.318362	128.938049	1061.344238	364.333832	274.740326	1143.181519	228.386200	261.328033	1131.477661	532.487610	339.426300	1074.845459	261.359283	309.485718	1072.317383	524.897156	0.000000	0.000000	-0.000000	158.142181	1103.248047	308.939575	224.524658	975.809448	560.687500	257.040710	973.335388	210.757935	232.196625	847.042297	563.239563	254.376053	761.807190	555.709656	233.284668	679.161987	546.725952	290.713043	763.480347	548.192444	230.191422	537.684387	512.504395	239.172592	526.722046	416.785217	188.029892	400.605347	529.259949	203.990005	314.202148	509.799042	173.903137	232.998047	503.683105	226.930481	317.782623	477.229370	159.428696	92.189575	488.509064	200.528488	105.531273	409.933411	113.996941	41.454620	447.027588	395.594757	85.704216	505.314423	311.043365	36.079391	557.013550	328.331787	43.759594	449.474365	265.359833	855.815674	196.756912	287.070068	770.727112	204.169312	321.557953	771.101318	218.557693	262.471283	685.618042	212.101456	254.558990	531.066040	240.346802	248.265381	515.318909	328.234619	217.974609	396.362366	215.183960	233.167587	313.908905	236.566483	204.884552	227.270370	232.470764	243.129349	317.147247	276.764496	190.955521	91.487289	243.707367	225.370621	111.840782	324.883850	141.650864	37.725159	280.110443	423.379486	92.533951	249.196167	359.140961	47.345051	297.314026	345.715271	52.856422	192.193573	
